<svg width="284" height="332" viewBox="0 0 284 332" fill="none" xmlns="http://www.w3.org/2000/svg">
<g filter="url(#filter0_d_4_50)">
<g opacity="0.9" filter="url(#filter1_f_4_50)">
<path d="M198.5 142.413L192.936 152.359C203.35 185.326 176.71 222.343 139.187 234.502C111.694 242.34 103.396 264.112 100.112 274.493C96.827 284.874 111.117 189.73 126.026 147.931C134.7 123.611 157.921 112.17 176.252 112.509C188.712 112.739 200.014 124.078 198.741 130.631C197.879 135.065 198.372 139.071 198.5 142.413Z" fill="url(#paint0_linear_4_50)"/>
</g>
<path d="M205.737 134.952C251.941 157.12 264.294 163.475 264.294 163.475C264.294 163.475 211.293 147.559 202.66 151.352C195.385 154.548 195.552 130.065 205.737 134.952Z" fill="url(#paint1_linear_4_50)"/>
<g opacity="0.3" filter="url(#filter2_f_4_50)">
<path d="M138.044 130.638C142.858 167.077 126.782 189.62 112.199 184.184C102.394 180.529 96.9926 176.629 89.8531 173.323L96.2014 170.808L87.0745 172.106C82.3387 170.166 76.6383 168.495 68.5447 167.292L81.1063 161.444L54.468 165.357C49.6719 164.411 44.9489 163.062 40.5111 161.543L54.2594 155.135L32.1677 158.384C21.2968 153.879 13.6471 149.238 13.6471 149.238C13.6471 149.238 5.11745 152.237 42.4463 137.544C79.7751 122.85 138.044 130.638 138.044 130.638Z" fill="url(#paint2_linear_4_50)"/>
</g>
<path d="M135.885 135.43C142.585 171.428 127.714 195.155 112.878 190.844C102.901 187.945 97.3083 184.465 90.011 181.711L96.2157 178.716L87.1745 180.708C82.3472 179.134 76.5713 177.902 68.4312 177.32L80.6636 170.524L54.2818 176.464C49.446 175.886 44.6622 174.901 40.1542 173.723L53.5418 166.278L31.663 171.207C20.5794 167.542 12.7034 163.494 12.7034 163.494C12.7034 163.494 4.3468 167.139 40.837 149.624C77.3271 132.109 135.885 135.43 135.885 135.43Z" fill="url(#paint3_linear_4_50)"/>
<g opacity="0.2" filter="url(#filter3_f_4_50)">
<path d="M106.971 37.4887C113.193 42.2139 128.097 56.4208 155.443 97.7206C197.003 160.486 172.54 205.536 172.54 205.536C149.185 215.333 126.498 192.152 123.581 168.824C121.625 153.181 124.785 143.815 124.926 134.075L136.927 145.168L124.807 130.178C124.488 126.206 123.517 122.035 121.378 117.24C118.292 110.324 117.622 105.735 117.031 99.5609L130.304 109.138L116.268 91.6621C115.661 86.0619 114.657 78.9324 112.445 68.8799L124.588 76.1232L110.709 61.4539C108.917 54.1459 106.564 45.5291 103.429 35.2381C103.429 35.2381 104.536 35.6397 106.971 37.4887Z" fill="url(#paint4_linear_4_50)"/>
</g>
<g opacity="0.3" filter="url(#filter4_f_4_50)">
<path d="M69.4231 34.8192C76.2992 37.9411 93.2469 48.249 126.858 82.0869C177.939 133.513 161.406 183.58 161.406 183.58C140.141 198.84 114.085 181.626 107.377 159.475C102.879 144.622 104.428 134.68 102.959 125.103L116.549 133.063L102.199 121.314C101.231 117.499 99.591 113.647 96.7032 109.468C92.5379 103.439 91.1237 99.1049 89.5258 93.1993L104.112 99.3661L87.474 85.645C85.9552 80.305 83.7945 73.5629 79.9682 64.2495L93.0616 68.4036L77.0413 57.3943C74.0796 50.6681 70.3517 42.7957 65.5807 33.4726C65.5807 33.4726 66.7324 33.5976 69.4231 34.8192Z" fill="url(#paint5_linear_4_50)"/>
</g>
<path d="M202.968 150.63L195.19 159.75C197.286 199.028 162.612 231.108 123.43 232.623C94.9809 232.563 81.7067 253.744 76.0262 264.054C70.3458 274.363 107.133 174.914 131.63 133.93C145.883 110.084 171.077 104.868 188.701 110.987C200.681 115.146 208.859 131.076 206.046 137.835C204.143 142.409 203.652 146.94 202.968 150.63Z" fill="url(#paint6_linear_4_50)"/>
<path d="M171.047 137.629C171.659 143.399 177.359 147.266 183.779 146.267C190.199 145.267 194.907 139.78 194.295 134.01C193.683 128.24 187.983 124.372 181.563 125.372C175.143 126.371 170.435 131.859 171.047 137.629Z" fill="url(#paint7_linear_4_50)"/>
<path d="M202.968 150.63L195.19 159.75C197.286 199.028 162.612 231.108 123.43 232.623C94.9809 232.563 81.7067 253.744 76.0262 264.054C70.3458 274.363 107.133 174.914 131.63 133.93C145.883 110.084 171.077 104.868 188.701 110.987C200.681 115.146 208.859 131.076 206.046 137.835C204.143 142.409 203.652 146.94 202.968 150.63Z" fill="url(#paint8_radial_4_50)"/>
<path d="M31.5176 43.847C38.8016 44.9726 57.2498 50.2904 96.3746 73.8741C155.835 109.716 149.231 163.045 149.231 163.045C131.426 183.813 102.804 174.307 92.0778 154.615C84.8851 141.41 84.509 131.302 81.2646 122.389L95.9996 126.356L79.8068 118.913C78.1418 115.47 75.8161 112.176 72.2135 108.912C67.0173 104.204 64.8196 100.378 62.1453 95.0751L77.51 97.0195L58.717 88.2934C56.2269 83.5186 52.8465 77.5576 47.3576 69.5575L60.8884 69.9581L43.2099 63.6996C39.0529 57.9771 33.9328 51.3521 27.5228 43.6052C27.5228 43.6052 28.6673 43.4065 31.5176 43.847Z" fill="url(#paint9_linear_4_50)"/>
<path d="M217.757 123.995C217.754 124.029 217.843 124.07 217.957 124.086C218.071 124.101 218.165 124.086 218.169 124.052C218.172 124.017 218.082 123.977 217.969 123.961C217.855 123.945 217.76 123.96 217.757 123.995Z" fill="white"/>
<path d="M202.968 150.63L195.19 159.75C197.286 199.028 162.612 231.108 123.43 232.623C94.9809 232.563 81.7067 253.744 76.0262 264.054C70.3458 274.363 107.133 174.914 131.63 133.93C145.883 110.084 171.077 104.868 188.701 110.987C200.681 115.146 208.859 131.076 206.046 137.835C204.143 142.409 203.652 146.94 202.968 150.63Z" fill="url(#paint10_radial_4_50)"/>
<g opacity="0.3" filter="url(#filter5_f_4_50)">
<path d="M70.5874 275.862C70.5874 281.281 99.4913 285.674 135.146 285.674C170.801 285.674 199.705 281.281 199.705 275.862C199.705 270.443 170.801 266.05 135.146 266.05C99.4913 266.05 70.5874 270.443 70.5874 275.862Z" fill="black"/>
</g>
<path d="M37.198 53.0038C61.8124 63.64 92.5141 78.9972 112.889 96.6314C135.792 115.606 128.976 146.084 114.745 150.817C107.268 154.809 99.5365 154.463 92.202 151.485C85.9352 139.172 85.4273 129.584 82.335 121.09L97.0686 125.061L80.8801 117.625C79.2151 114.181 76.8901 110.879 73.2876 107.614C68.0913 102.906 65.8942 99.0777 63.2199 93.7743L78.5722 95.7196L59.7916 87.0062C57.3015 82.2314 53.9083 76.2625 48.4195 68.2623L61.9657 68.6676L44.272 62.4061C42.1728 59.5163 39.8304 56.382 37.198 53.0038Z" fill="url(#paint11_linear_4_50)"/>
<path d="M36.1276 54.3006C60.7421 64.9368 91.4438 80.294 111.819 97.9283C134.722 116.903 127.905 147.381 113.675 152.113C106.198 156.106 98.4662 155.76 91.1317 152.782C84.8649 140.469 84.357 130.881 81.2647 122.387L95.9982 126.358L79.8098 118.921C78.1448 115.478 75.8198 112.175 72.2172 108.911C67.021 104.203 64.8238 100.375 62.1496 95.0711L77.5019 97.0164L58.7213 88.3031C56.2312 83.5282 52.838 77.5593 47.3492 69.5592L60.8953 69.9644L43.2017 63.703C41.1025 60.8132 38.7601 57.6789 36.1276 54.3006Z" fill="url(#paint12_linear_4_50)"/>
<path d="M31.5176 43.847C38.8016 44.9726 57.2498 50.2904 96.3746 73.8741C155.835 109.716 149.231 163.045 149.231 163.045C131.426 183.813 102.804 174.307 92.0778 154.615C84.8851 141.41 84.509 131.302 81.2646 122.389L95.9996 126.356L79.8068 118.913C78.1418 115.47 75.8161 112.176 72.2135 108.912C67.0173 104.204 64.8196 100.378 62.1453 95.0751L77.51 97.0195L58.717 88.2934C56.2269 83.5186 52.8465 77.5576 47.3576 69.5575L60.8884 69.9581L43.2099 63.6996C39.0529 57.9771 33.9328 51.3521 27.5228 43.6052C27.5228 43.6052 28.6673 43.4065 31.5176 43.847Z" fill="url(#paint13_linear_4_50)"/>
<path d="M195.303 159.631L195.186 159.753C197.065 194.955 169.415 224.364 135.449 231.182C145.916 186.347 172.399 167.334 184.45 162.326C188.002 160.85 191.785 160.045 195.303 159.631Z" fill="url(#paint14_linear_4_50)"/>
<path d="M195.303 159.631L195.186 159.753C197.065 194.955 169.415 224.364 135.449 231.182C145.916 186.347 172.399 167.334 184.45 162.326C188.002 160.85 191.785 160.045 195.303 159.631Z" fill="url(#paint15_linear_4_50)"/>
<path opacity="0.2" d="M171.047 137.629C171.659 143.399 177.359 147.266 183.779 146.267C190.199 145.267 194.907 139.78 194.295 134.01C193.683 128.24 187.983 124.372 181.563 125.372C175.143 126.371 170.435 131.859 171.047 137.629Z" fill="url(#paint16_radial_4_50)"/>
<g filter="url(#filter6_f_4_50)">
<path d="M175.186 134.708C175.186 139.013 178.652 142.503 182.927 142.503C187.203 142.503 190.669 139.013 190.669 134.708C190.669 130.403 187.203 126.913 182.927 126.913C178.652 126.913 175.186 130.403 175.186 134.708Z" fill="#154868"/>
</g>
<g filter="url(#filter7_f_4_50)">
<path d="M175.939 134.708C175.939 138.594 179.068 141.744 182.927 141.744C186.787 141.744 189.916 138.594 189.916 134.708C189.916 130.822 186.787 127.672 182.927 127.672C179.068 127.672 175.939 130.822 175.939 134.708Z" fill="#00B2FF"/>
</g>
<g filter="url(#filter8_f_4_50)">
<path d="M176.383 134.708C176.383 138.347 179.313 141.298 182.927 141.298C186.542 141.298 189.472 138.347 189.472 134.708C189.472 131.069 186.542 128.118 182.927 128.118C179.313 128.118 176.383 131.069 176.383 134.708Z" fill="url(#paint17_radial_4_50)"/>
</g>
<path opacity="0.7" d="M181.389 132.606C181.224 133.978 182.516 135.342 184.274 135.652C186.032 135.962 187.591 135.102 187.756 133.73C187.92 132.358 186.629 130.994 184.871 130.684C183.113 130.374 181.554 131.234 181.389 132.606Z" fill="#97F4F4"/>
<g filter="url(#filter9_f_4_50)">
<path d="M185.311 133.663C185.311 134.334 185.76 134.878 186.314 134.878C186.867 134.878 187.316 134.334 187.316 133.663C187.316 132.992 186.867 132.449 186.314 132.449C185.76 132.449 185.311 132.992 185.311 133.663Z" fill="white"/>
</g>
<path d="M256.163 160.344C256.163 160.344 219.936 147.742 212.986 145.583C206.972 143.714 204.504 142.967 204.504 142.967" stroke="#EA981A"/>
</g>
<defs>
<filter id="filter0_d_4_50" x="0" y="0" width="293" height="351" filterUnits="userSpaceOnUse" color-interpolation-filters="sRGB">
<feFlood flood-opacity="0" result="BackgroundImageFix"/>
<feColorMatrix in="SourceAlpha" type="matrix" values="0 0 0 0 0 0 0 0 0 0 0 0 0 0 0 0 0 0 127 0" result="hardAlpha"/>
<feOffset dx="15" dy="15"/>
<feGaussianBlur stdDeviation="2"/>
<feColorMatrix type="matrix" values="0 0 0 0 0 0 0 0 0 0 0 0 0 0 0 0 0 0 0.5 0"/>
<feBlend mode="normal" in2="BackgroundImageFix" result="effect1_dropShadow_4_50"/>
<feBlend mode="normal" in="SourceGraphic" in2="effect1_dropShadow_4_50" result="shape"/>
</filter>
<filter id="filter1_f_4_50" x="95.2725" y="108.137" width="107.931" height="171.506" filterUnits="userSpaceOnUse" color-interpolation-filters="sRGB">
<feFlood flood-opacity="0" result="BackgroundImageFix"/>
<feBlend mode="normal" in="SourceGraphic" in2="BackgroundImageFix" result="shape"/>
<feGaussianBlur stdDeviation="2.18201" result="effect1_foregroundBlur_4_50"/>
</filter>
<filter id="filter2_f_4_50" x="7.97833" y="123.747" width="135.765" height="66.0725" filterUnits="userSpaceOnUse" color-interpolation-filters="sRGB">
<feFlood flood-opacity="0" result="BackgroundImageFix"/>
<feBlend mode="normal" in="SourceGraphic" in2="BackgroundImageFix" result="shape"/>
<feGaussianBlur stdDeviation="2.41483" result="effect1_foregroundBlur_4_50"/>
</filter>
<filter id="filter3_f_4_50" x="97.2187" y="29.0281" width="88.6832" height="185.023" filterUnits="userSpaceOnUse" color-interpolation-filters="sRGB">
<feFlood flood-opacity="0" result="BackgroundImageFix"/>
<feBlend mode="normal" in="SourceGraphic" in2="BackgroundImageFix" result="shape"/>
<feGaussianBlur stdDeviation="3.10502" result="effect1_foregroundBlur_4_50"/>
</filter>
<filter id="filter4_f_4_50" x="59.1485" y="27.0404" width="111.243" height="168.774" filterUnits="userSpaceOnUse" color-interpolation-filters="sRGB">
<feFlood flood-opacity="0" result="BackgroundImageFix"/>
<feBlend mode="normal" in="SourceGraphic" in2="BackgroundImageFix" result="shape"/>
<feGaussianBlur stdDeviation="3.2161" result="effect1_foregroundBlur_4_50"/>
</filter>
<filter id="filter5_f_4_50" x="38.41" y="233.872" width="193.472" height="83.9792" filterUnits="userSpaceOnUse" color-interpolation-filters="sRGB">
<feFlood flood-opacity="0" result="BackgroundImageFix"/>
<feBlend mode="normal" in="SourceGraphic" in2="BackgroundImageFix" result="shape"/>
<feGaussianBlur stdDeviation="16.0887" result="effect1_foregroundBlur_4_50"/>
</filter>
<filter id="filter6_f_4_50" x="173.861" y="125.588" width="18.1324" height="18.2391" filterUnits="userSpaceOnUse" color-interpolation-filters="sRGB">
<feFlood flood-opacity="0" result="BackgroundImageFix"/>
<feBlend mode="normal" in="SourceGraphic" in2="BackgroundImageFix" result="shape"/>
<feGaussianBlur stdDeviation="0.662198" result="effect1_foregroundBlur_4_50"/>
</filter>
<filter id="filter7_f_4_50" x="175.7" y="127.433" width="14.4543" height="14.5505" filterUnits="userSpaceOnUse" color-interpolation-filters="sRGB">
<feFlood flood-opacity="0" result="BackgroundImageFix"/>
<feBlend mode="normal" in="SourceGraphic" in2="BackgroundImageFix" result="shape"/>
<feGaussianBlur stdDeviation="0.119545" result="effect1_foregroundBlur_4_50"/>
</filter>
<filter id="filter8_f_4_50" x="175.711" y="127.447" width="14.4329" height="14.5231" filterUnits="userSpaceOnUse" color-interpolation-filters="sRGB">
<feFlood flood-opacity="0" result="BackgroundImageFix"/>
<feBlend mode="normal" in="SourceGraphic" in2="BackgroundImageFix" result="shape"/>
<feGaussianBlur stdDeviation="0.335881" result="effect1_foregroundBlur_4_50"/>
</filter>
<filter id="filter9_f_4_50" x="183.438" y="130.576" width="5.7506" height="6.17497" filterUnits="userSpaceOnUse" color-interpolation-filters="sRGB">
<feFlood flood-opacity="0" result="BackgroundImageFix"/>
<feBlend mode="normal" in="SourceGraphic" in2="BackgroundImageFix" result="shape"/>
<feGaussianBlur stdDeviation="0.93649" result="effect1_foregroundBlur_4_50"/>
</filter>
<linearGradient id="paint0_linear_4_50" x1="120.193" y1="251.289" x2="92.5603" y2="224.977" gradientUnits="userSpaceOnUse">
<stop stop-color="#F6C31F"/>
<stop offset="1" stop-color="white" stop-opacity="0"/>
</linearGradient>
<linearGradient id="paint1_linear_4_50" x1="212.422" y1="154.23" x2="212.974" y2="140.028" gradientUnits="userSpaceOnUse">
<stop stop-color="#FF9300"/>
<stop offset="1" stop-color="#FFF900"/>
</linearGradient>
<linearGradient id="paint2_linear_4_50" x1="68.2019" y1="131.611" x2="70.5262" y2="144.08" gradientUnits="userSpaceOnUse">
<stop stop-color="#5DA5B6"/>
<stop offset="1" stop-color="#5DA5B6" stop-opacity="0"/>
</linearGradient>
<linearGradient id="paint3_linear_4_50" x1="72.5463" y1="153.591" x2="72.5463" y2="186.342" gradientUnits="userSpaceOnUse">
<stop stop-color="#32C0E1"/>
<stop offset="1" stop-color="#4D6986"/>
</linearGradient>
<linearGradient id="paint4_linear_4_50" x1="174.289" y1="99.7099" x2="120.413" y2="112.589" gradientUnits="userSpaceOnUse">
<stop stop-color="#559EAF"/>
<stop offset="1" stop-color="#559EAF" stop-opacity="0"/>
</linearGradient>
<linearGradient id="paint5_linear_4_50" x1="141.42" y1="102.122" x2="117.1" y2="116.871" gradientUnits="userSpaceOnUse">
<stop stop-color="#33ABC7"/>
<stop offset="1" stop-color="#33ABC7" stop-opacity="0"/>
</linearGradient>
<linearGradient id="paint6_linear_4_50" x1="149.93" y1="186.026" x2="120.404" y2="154.661" gradientUnits="userSpaceOnUse">
<stop stop-color="#32C0E1"/>
<stop offset="1" stop-color="#4D6986"/>
</linearGradient>
<linearGradient id="paint7_linear_4_50" x1="174.384" y1="143.265" x2="173.925" y2="143.657" gradientUnits="userSpaceOnUse">
<stop stop-color="white" stop-opacity="0"/>
<stop offset="1" stop-color="white"/>
</linearGradient>
<radialGradient id="paint8_radial_4_50" cx="0" cy="0" r="1" gradientUnits="userSpaceOnUse" gradientTransform="translate(134.152 253.862) rotate(-153.087) scale(113.699 80.068)">
<stop stop-color="#4F5F6D"/>
<stop offset="1" stop-color="#5E93B6" stop-opacity="0"/>
</radialGradient>
<linearGradient id="paint9_linear_4_50" x1="125.302" y1="99.5981" x2="89.6028" y2="152.861" gradientUnits="userSpaceOnUse">
<stop stop-color="#0390B2"/>
<stop offset="1" stop-color="#00CFFF"/>
</linearGradient>
<radialGradient id="paint10_radial_4_50" cx="0" cy="0" r="1" gradientUnits="userSpaceOnUse" gradientTransform="translate(193.984 223.219) rotate(178.827) scale(109.413 108.985)">
<stop stop-color="#4F5F6D"/>
<stop offset="1" stop-color="#5E93B6" stop-opacity="0"/>
</radialGradient>
<linearGradient id="paint11_linear_4_50" x1="113.911" y1="96.8235" x2="111.052" y2="100.519" gradientUnits="userSpaceOnUse">
<stop stop-color="white"/>
<stop offset="1" stop-color="white" stop-opacity="0"/>
</linearGradient>
<linearGradient id="paint12_linear_4_50" x1="116.047" y1="108.645" x2="97.2378" y2="131.423" gradientUnits="userSpaceOnUse">
<stop stop-color="#2F8AAA"/>
<stop offset="1" stop-color="#2CA2CF" stop-opacity="0"/>
</linearGradient>
<linearGradient id="paint13_linear_4_50" x1="101.863" y1="161.632" x2="98.05" y2="164.778" gradientUnits="userSpaceOnUse">
<stop stop-color="white" stop-opacity="0"/>
<stop offset="1" stop-color="white"/>
</linearGradient>
<linearGradient id="paint14_linear_4_50" x1="159.322" y1="177.907" x2="177.482" y2="194.017" gradientUnits="userSpaceOnUse">
<stop stop-color="#89C0C8"/>
<stop offset="1" stop-color="#8EEBF9"/>
</linearGradient>
<linearGradient id="paint15_linear_4_50" x1="167.609" y1="195.612" x2="187.318" y2="202.457" gradientUnits="userSpaceOnUse">
<stop stop-color="white" stop-opacity="0"/>
<stop offset="1" stop-color="white"/>
</linearGradient>
<radialGradient id="paint16_radial_4_50" cx="0" cy="0" r="1" gradientUnits="userSpaceOnUse" gradientTransform="translate(182.671 135.819) rotate(171.15) scale(11.7641 10.4936)">
<stop stop-color="#0F3058"/>
<stop offset="0.610796" stop-color="#08A6F7"/>
<stop offset="0.768965" stop-color="#00F5FF"/>
<stop offset="1" stop-color="#07C8FA" stop-opacity="0.0627451"/>
</radialGradient>
<radialGradient id="paint17_radial_4_50" cx="0" cy="0" r="1" gradientUnits="userSpaceOnUse" gradientTransform="translate(182.927 134.708) rotate(180) scale(6.5447 6.58978)">
<stop stop-color="#18324C"/>
<stop offset="1" stop-color="#0B52A1"/>
</radialGradient>
</defs>
</svg>
